<?xml version="1.0" encoding="utf-8"?>
<!-- Generator: Adobe Illustrator 22.0.0, SVG Export Plug-In . SVG Version: 6.00 Build 0)  -->
<svg version="1.1" id="Calque_1" xmlns="http://www.w3.org/2000/svg" xmlns:xlink="http://www.w3.org/1999/xlink" x="0px" y="0px"
	 viewBox="0 0 432 432" style="enable-background:new 0 0 432 432;" xml:space="preserve">
<style type="text/css">
	.st0{fill:#066938;}
	.st1{fill:#9F1E29;}
	.st2{fill:#571419;}
	.st3{fill:none;}
	.st4{fill:#C68448;}
	.st5{fill:#8C633A;}
	.st6{fill:#D79A5D;}
	.st7{fill:#A5C0DF;}
	.st8{fill:#36502D;}
	.st9{fill:#C8261D;}
	.st10{fill:#808181;}
	.st11{fill:#519C37;}
	.st12{fill:#FCEE69;}
	.st13{fill:#EC8C37;}
	.st14{fill:#5877B1;}
	.st15{fill:#7B1523;}
	.st16{fill:#4F0D1C;}
	.st17{fill:#BF333D;}
	.st18{fill:#E7373D;}
	.st19{fill:#972021;}
	.st20{fill:#F2F2F2;}
	.st21{fill:#F3D4AA;}
	.st22{fill:#A67D52;}
	.st23{fill:#B59063;}
	.st24{fill:#020203;}
	.st25{fill:#FFFFFF;}
	.st26{fill:#E7E6E6;}
	.st27{fill:#9A9999;}
	.st28{fill:#B4B4B4;}
	.st29{fill:#C9913E;}
	.st30{fill:#D6A14D;}
	.st31{fill:#E2A1BC;}
	.st32{fill:#C1292E;}
	.st33{fill:#82171C;}
	.st34{fill:#CDCCCC;}
	.st35{fill:#D06C5D;}
	.st36{fill:#79986F;}
	.st37{fill:#DAA405;}
	.st38{fill:#EDCBA9;}
	.st39{fill:#405045;}
	.st40{fill:#8B2F2F;}
	.st41{fill:#1D2E1C;}
	.st42{fill:#D4BB78;}
	.st43{fill:#3C1014;}
	.st44{fill:#731633;}
	.st45{fill:#3F0D26;}
	.st46{fill:#E3EBF8;}
	.st47{fill:#D2DFEF;}
	.st48{fill:#B88E5C;}
	.st49{fill:#A81735;}
	.st50{fill:#4AA8A8;}
	.st51{fill:#94B947;}
	.st52{fill:#A8C4D3;}
	.st53{fill:#9F1A18;}
	.st54{fill:#4F6325;}
	.st55{fill:#BAC463;}
	.st56{fill:#8C694B;}
	.st57{fill:#8A9A66;}
	.st58{fill:#DDDDC3;}
	.st59{fill:#3F668A;}
	.st60{fill:#1B1B1B;}
	.st61{fill:#FFF0BA;}
	.st62{fill:#C69C6C;}
	.st63{fill:#603914;}
	.st64{fill:#114923;}
	.st65{fill:#961F27;}
	.st66{fill:#BB870E;}
	.st67{fill:#C51720;}
	.st68{fill:#449494;}
	.st69{fill:#417675;}
	.st70{fill:#ABCFAF;}
	.st71{fill:#66B2B0;}
	.st72{fill:#F9B03D;}
	.st73{fill:#754D24;}
	.st74{fill:#F6F6F6;}
	.st75{fill:#BA181A;}
	.st76{fill:#AD191C;}
	.st77{fill:#161515;}
	.st78{fill:#1E1E1C;}
	.st79{fill:#0E472B;}
	.st80{fill:#D3C29D;}
	.st81{fill:#CC2717;}
	.st82{fill:#A81916;}
	.st83{fill:#805129;}
	.st84{fill:#F39323;}
	.st85{fill:#B56B20;}
	.st86{fill:#E52629;}
	.st87{fill:#7B9EC7;}
	.st88{fill:#48515A;}
	.st89{fill:#DED3C6;}
	.st90{fill:#3B444E;}
	.st91{fill:#6189B1;}
	.st92{fill:#97B8D7;}
	.st93{fill:#715038;}
	.st94{fill:#A3282E;}
	.st95{fill:#110506;}
	.st96{fill:#F3E4D4;}
	.st97{fill:#F4DCC9;}
	.st98{fill:#676767;}
	.st99{fill:#E0EDF3;}
	.st100{fill:#90443F;}
	.st101{fill:#989389;}
	.st102{fill:#F0DABE;}
	.st103{fill:#4F382A;}
	.st104{fill:#009245;}
	.st105{fill:#064928;}
</style>
<g>
	<g>
		<g>
			<path class="st34" d="M227.1,333.7c-1.6,0.2-3.3,0.1-4.9-0.1c-4.9-0.8-9.8-1.6-14.8-2.5c-0.6-0.1-1.3-0.2-2-0.3
				c-0.1-0.9-0.2-1.9-0.3-2.8c-1-7.3-2.2-14.6-4-21.7c-1.5-5.7-2.8-11.5-4-17.2c-1-4.3-1.2-8.6-1.1-13c0-0.9,0-1.7,0-2.6
				c0-0.3-0.1-0.7-0.1-1c-0.1-0.4-0.4-0.8-0.9-0.7c-0.5,0-0.7,0.4-0.8,0.8c-0.1,1.1-0.3,2.2-0.4,3.3c-0.4,4.9-0.3,9.8,0.8,14.7
				c1.5,7.1,3.2,14.1,4.7,21.1c0.8,3.8,1.4,7.7,2,11.5c0.4,2.7,0.7,5.3,0.9,8c0.1,0.8,0.1,1.6,0,2.4c0,2.2-1.1,3.8-2.9,4.9
				c-1.5,0.9-3,1.4-4.7,1.7c-5.4,1-10.8,1.2-16.2-0.1c-2.4-0.6-4.7-1.4-6.8-2.8c-2.5-1.7-4.2-4-5.4-6.7c-1.4-3.4-2.1-6.9-2.7-10.5
				c-0.6-4.2-1.1-8.5-1.8-12.7c-0.7-3.7-1.7-7.4-2.7-11.1c-1.9-7.3-4-14.5-6.3-21.7c-2.7-8.4-6-16.6-9.1-24.9
				c-2.7-7.2-5-14.5-6.5-22c-0.5-2.6-0.8-5.2-1.1-7.8c-0.1-0.8,0-1.6,0-2.4c1.2-0.1,2.3-0.2,3.4-0.3c4.3-0.3,8.6-0.5,12.8-1.6
				c3.9-1,7.5-2.6,11-4.7c5.1-3,9.3-7.1,13.1-11.6c1.5-1.8,3-3.6,4.6-5.4c0.2-0.3,0.5-0.6,0.6-0.9c0.2-0.5,0.2-1-0.2-1.4
				c-0.4-0.4-0.9-0.5-1.4-0.2c-0.4,0.2-0.8,0.5-1.1,0.8c-2.4,2.6-4.8,5.1-7.2,7.7c-4.5,5-9.8,8.7-16,11.3c-1.2,0.5-2.5,0.8-3.8,1.2
				c-0.2,0.1-0.4,0.1-0.8,0.1c0-0.3,0-0.6,0-0.9c0.3-5.8-0.8-11.3-3.4-16.5c-2.7-5.2-6.7-8.9-12.2-11c-1.3-0.5-2.8-0.7-4.2-0.8
				c-1.8-0.2-3.5,0-5.4,0.4c0-1.3-0.1-2.4,0-3.6c0.3-2.1,0.6-4.3,1.1-6.4c0.3-1.2,0.8-2.4,1.4-3.5c3.4-6.1,7.7-11.4,13.5-15.4
				c3.5-2.4,7.3-4.2,11.3-5.7c5.1-1.9,10.3-3.1,15.8-3.7c0,0.6-0.1,1.2-0.1,1.8c-0.2,2.4,0.1,4.8,0.6,7.1c0,0.1,0.1,0.2,0.1,0.3
				c0.2,0.4,0.4,0.8,1,0.8c0.5-0.1,0.6-0.5,0.7-0.9c0-0.5,0-1,0-1.5c-0.1-2.6-0.3-5.1,0.3-7.7c1.2-5.1,4-8.9,8.6-11.4
				c2.5-1.3,5.1-1.7,7.8-0.8c0.9,0.3,1.9,0.7,2.6,1.4c3.3,2.9,5.1,6.5,5,11c0,2.6-1,5-2.5,7.2c-0.9,1.4-2,2.7-3,4.1
				c-0.5,0.6-0.9,1.3-1.3,2c-0.4,0.7-0.3,1.3,0.2,1.6c0.5,0.4,1.1,0.4,1.8-0.1c0.4-0.3,0.9-0.7,1.2-1.2c1-1.2,2-2.4,2.9-3.6
				c2.2-2.8,3.5-6,3.9-9.6c0.1,0,0.2-0.1,0.3-0.1c7.6-0.5,14.8,0.8,21.6,4.4c4.8,2.6,9,6,12.6,10c3.6,4,6.8,8.4,9.8,12.9
				c4.3,6.5,8.4,13.2,11.5,20.3c4.3,9.7,7.7,19.7,9.8,30.1c0.7,3.5,1.1,7.1,1.4,10.7c0.4,4.6,0.7,9.1,0.8,13.7
				c0.2,6.5-0.3,12.9-0.9,19.4c-0.4,4.5-0.9,9-1.3,13.5c-0.5,5-0.9,9.9-1.3,14.9c-0.5,6.8-0.5,13.5-0.5,20.3
				c0,5.2-0.1,10.4-0.3,15.5c-0.1,1.7-0.3,3.4-0.6,5.1c-0.5,2.7-2,4.8-4.2,6.3c-2.5,1.7-5.3,2.8-8.3,3.3c-3.9,0.6-7.9,0.7-11.9,0
				c-2.8-0.5-4.6-2.2-5.6-4.7c-0.6-1.6-1-3.3-1.1-5.1c-0.2-3-0.4-6-0.5-8.9c-0.1-4.2-0.1-8.5-0.3-12.7c-0.2-8.8-1-17.5-3.1-26.1
				c-0.9-3.9-2.4-7.6-4.4-11.2c-0.2-0.4-0.4-0.7-0.6-1.1c-0.4-0.6-1.1-0.8-1.7-0.6c-0.6,0.3-0.8,0.8-0.6,1.6c0.4,1,0.8,2,1.2,2.9
				c1.1,2.2,2.1,4.5,2.6,6.9c0.7,3,1.4,6,1.7,9c0.6,5.1,1,10.2,1.4,15.2c0.2,2.5,0.1,5.1,0.2,7.6C226.8,324.1,227,328.8,227.1,333.7
				z M192.1,146.6c-0.1-2-0.6-3.9-1.8-5.6c-1.6-2.2-4.3-3.2-6.9-2.6c-1.3,0.3-2.4,1-3.4,1.9c-2.1,2-3.4,4.5-3.9,7.4
				c-0.2,1.3-0.4,2.7-0.4,4c0,1.5,0.8,2.3,2.2,2.4c2.7,0.3,5.5,0.7,8.1,1.3c1.1,0.3,2-0.1,2.7-1c0.7-1,1.4-2,2-3
				C191.6,150.1,192.1,148.4,192.1,146.6z M154.1,164.5c-0.5,0.1-1.3,0.1-2.1,0.2c-2.8,0.4-5.3,1.4-7.5,3.2
				c-2.3,1.9-3.3,4.5-3.7,7.4c-0.1,0.6,0.1,1.1,0.6,1.3c0.5,0.3,1,0.3,1.4,0c0.3-0.2,0.6-0.6,0.7-1c0.3-0.6,0.4-1.3,0.6-1.9
				c0.5-1.8,1.5-3.3,3.3-4.1c1.1-0.6,2.2-1.1,3.4-1.5c1.7-0.6,3.4-0.9,5.1-0.4c0.9,0.3,1.8,0.7,2.7,1c0.4,0.1,0.7,0.4,1.1,0.5
				c0.7,0.2,1.4-0.1,1.8-0.7c0.3-0.6,0.2-1.3-0.4-1.8c-0.2-0.2-0.4-0.3-0.6-0.5C158.6,165.2,156.5,164.6,154.1,164.5z"/>
			<path class="st34" d="M161.2,325.1c-3.6,1.2-6.7,3.3-9.7,5.3c-4.1,2.6-8.2,5.3-12.3,7.9c-3.8,2.3-7.8,4.1-11.9,5.9
				c-5.4,2.4-10.7,2-16.1,0.1c-3.5-1.2-6.2-3.4-8.2-6.5c-0.1-0.1-0.2-0.3-0.2-0.4c-1.3-2.2-1.2-3.8,0.4-5.9c1-1.3,2.3-2.4,3.7-3.2
				c0.7-0.4,1.4-0.8,2.2-1.2c5.9-2.8,9.6-7.5,11.5-13.6c1.1-3.7,2.1-7.4,3.2-11.1c1.3-4.5,2.6-9,4.1-13.4c1.4-4,3.2-7.8,5.4-11.5
				c3-5.1,7.5-8.6,12.7-11.4c0.1-0.1,0.3-0.1,0.5-0.2c0.1,0.3,0.3,0.6,0.4,1c4.5,12.1,8,24.6,11.1,37.1c0.9,3.9,1.4,7.9,1.9,11.9
				c0.4,2.9,0.9,5.7,1.3,8.6C161.2,324.6,161.2,324.8,161.2,325.1z"/>
			<path class="st34" d="M269.2,269c1,0.7,1.9,1.3,2.6,1.9c4.7,4,7.9,8.9,9.6,14.8c0.9,3.2,1.8,6.5,2.7,9.7c1,3.3,2.3,6.6,4,9.6
				c2.1,3.7,5,6.7,8.6,9c2.4,1.6,5.1,2.3,7.9,2.6c1,0.1,2,0.1,3.1,0.2c2.7,0.3,4,1.7,4.1,4.4c0.1,2.4-0.3,4.8-1.2,7
				c-4.3,11.3-12.4,18.3-24.2,21c-5.6,1.3-11,0.2-16.2-1.9c-2.7-1.1-5.1-2.5-7.6-4.1c0-0.1,0.1-0.3,0.2-0.4c1.6-2.1,2.4-4.6,2.8-7.2
				c0.5-3.7,0.6-7.4,0.7-11.1c0.1-7.9,0.1-15.8,0.3-23.7c0.1-5.1,0.6-10.1,1-15.2c0.3-4.3,0.8-8.6,1.2-12.9
				C268.9,271.6,269.1,270.5,269.2,269z"/>
			<path class="st28" d="M148.3,213.2c-1.9,0.2-3.7,0.4-5.5,0.6c-2.4,0.2-4.7,0.4-7.1,0.5c-4.8,0.3-9.5,0.5-14.3-0.1
				c-3-0.4-5.8-1.4-8.2-3.3c-2.6-2-3.9-4.5-4-7.8c-0.1-2.3,0.3-4.6,1.2-6.8c0.7-1.8,1.9-3.4,3.5-4.5c3.8-2.6,7.9-4.7,12.3-5.9
				c2.4-0.7,4.9-0.9,7.4-0.1c2.8,0.9,5.2,2.4,7.4,4.4c4.1,3.8,6.2,8.7,7.2,14.1C148.6,207.2,148.7,210.1,148.3,213.2z"/>
			<path class="st34" d="M145.2,149.9c-5.9,3.1-10.7,7.5-14.6,12.9c-3.5-1.9-5.8-4.5-6.2-8.4c-0.2-2.3-0.1-4.6,1.3-6.7
				c2.2-3.5,5.4-5,9.5-5c3,0,5.5,1.2,7.4,3.6C143.4,147.5,144.3,148.6,145.2,149.9z"/>
			<path class="st35" d="M186.8,152.8c-2.7-0.5-5.2-0.9-7.9-1.4c0-0.3,0-0.7,0-1c0.2-2.4,0.9-4.6,2.1-6.7c0.9-1.6,2.3-2.3,4-2.5
				c1.2-0.2,2.1,0.4,2.8,1.4c0.7,0.9,1.1,1.9,1.2,3C189.4,148.4,188.5,150.8,186.8,152.8z"/>
			<path class="st35" d="M107.9,204.4c-3.1,0.1-5.6-2.3-6-5.8c-0.4-3.6,2.2-5.8,5.2-6.3c1.4-0.2,2.8-0.1,4,0.7
				c1.8,1.1,3.5,4.5,3.2,6.5c-0.1,1.4-0.8,2.4-1.9,3.2C111.2,203.9,109.6,204.4,107.9,204.4z"/>
		</g>
		<g>
			<path class="st19" d="M324.7,164.2c1.4,0.7,2.4,1.8,3.1,3.2c1.3-0.8,2.6-1.5,3.8-2.2c0.6-0.3,1.1-0.6,1.7-0.8
				c0.4-0.2,0.9-0.3,1.3-0.3c0.3,0,0.7,0.2,0.8,0.5c0.1,0.2-0.1,0.6-0.2,0.8c-0.3,0.3-0.8,0.6-1.2,0.9c-1.7,1.1-3.5,2.1-5.3,3.2
				c0.6,1.6,1.1,3.1,1.6,4.7c0.6-0.2,1-0.4,1.5-0.6c1.5-0.6,2.9-1.3,4.4-1.9c0.5-0.2,1.1-0.3,1.6-0.1c0.8,0.2,1,1,0.4,1.6
				c-0.3,0.3-0.7,0.4-1.1,0.6c-1.7,0.8-3.4,1.6-5.1,2.4c-0.3,0.2-0.7,0.3-1,0.6c0.4,1.7,0.8,3.3,1.2,5c0.3,0,0.6,0,0.9-0.1
				c1.3-0.3,2.6-0.6,4-1c0.6-0.1,1.2-0.2,1.7,0.2c0.6,0.5,0.6,1.2-0.1,1.6c-0.3,0.2-0.7,0.3-1.1,0.4c-1.4,0.4-2.8,0.7-4.2,1.1
				c-0.2,0.1-0.5,0.2-0.8,0.3c0.3,2,0.8,4-0.1,6.1c1.6-0.3,3-0.5,4.4-0.8c0.7-0.1,1.4-0.3,2.1-0.3c0.3,0,0.7,0,1,0.1
				c0.8,0.2,1,1.1,0.4,1.6c-0.3,0.3-0.8,0.5-1.3,0.6c-2.7,0.6-5.3,1.2-8,1.8c-0.4,0.1-0.9,0.3-1.2,0.5c-1.9,1.6-4.1,2.7-6.4,3.6
				c-3.9,1.4-7.9,2.7-11.7,4.2c-4.6,1.8-9.1,3.8-13.6,5.6c-5.1,2-10.3,3.7-15.8,4.5c-1.9,0.3-3.9,0.2-5.9,0.3c-0.3,0-0.5,0-0.7,0
				c0.2,2,0.3,3.9,0.5,6c0.3,0,0.7,0,1,0c9.9,0.3,19.4-1.5,28.7-4.6c3.2-1.1,6.3-2.2,9.4-3.2c2-0.7,4-1.1,6.1-0.8
				c0.4,0.1,0.9-0.1,1.3-0.2c2.2-0.7,4.5-1.4,6.7-2.1c0.5-0.1,1-0.2,1.4-0.2c0.4,0,0.8,0.4,0.8,0.8c0.1,0.5-0.2,0.8-0.6,1
				c-1.1,0.4-2.1,0.8-3.2,1.1c-1.1,0.4-2.3,0.8-3.5,1.2c1.4,2.2,1.3,4.7,1.2,7.2c1-0.2,1.8-0.4,2.6-0.6c0.7-0.2,1.4-0.3,2.1-0.5
				c0.3-0.1,0.6-0.1,0.9,0c0.7,0.2,0.8,0.9,0.2,1.3c-0.3,0.2-0.7,0.4-1.1,0.5c-1.4,0.4-2.8,0.8-4.1,1.2c-0.3,0.1-0.6,0.2-0.8,0.3
				c-0.7,3.3-1.4,6.5-2.1,9.9c0.3,0,0.6,0,0.8,0c1.6-0.2,3.2-0.3,4.7-0.5c0.5-0.1,1-0.1,1.3,0.5c0.2,0.5-0.1,1.1-0.7,1.4
				c-0.4,0.2-0.9,0.3-1.3,0.3c-1.8,0.3-3.5,0.5-5.3,0.8c-0.3,1.3-0.5,2.5-0.8,3.8c1.4,0.4,2.7,0.9,4.1,1.3c1.3,0.4,2.6,0.8,3.9,1.2
				c0.4,0.1,0.8,0.3,1.1,0.5c0.7,0.5,0.5,1.4-0.3,1.6c-0.4,0.1-0.8,0.1-1.2,0c-2.4-0.6-4.7-1.2-7-1.7c-0.3-0.1-0.6-0.2-1.1-0.3
				c-0.5,3-1.1,5.9-1.6,8.9c0.4,0.1,0.7,0.2,1,0.3c2,0.4,3.9,0.8,5.9,1.2c0.4,0.1,0.8,0.1,1.1,0.3c0.4,0.2,0.8,0.4,1,0.7
				c0.2,0.3,0.3,0.8,0.2,1c-0.1,0.2-0.6,0.4-1,0.4c-1.1-0.1-2.2-0.3-3.2-0.5c-1.8-0.3-3.5-0.6-5.3-0.9c-0.5,2.1-1,4-1.6,6.1
				c1.7,0.9,3.4,1.8,5.2,2.8c0.2,0.1,0.5,0.2,0.7,0.4c0.6,0.5,0.4,1.4-0.4,1.6c-0.3,0.1-0.7,0.1-1,0c-0.6-0.2-1.3-0.4-1.9-0.7
				c-1.1-0.5-2.1-1.1-3.2-1.7c-1-0.5-2-0.9-3.1-1c-0.9-0.1-1.8-0.5-2.7-0.9c-6.2-3-12.4-5.7-18.9-7.9c-4-1.3-8-2.7-11.9-4.1
				c-2.7-1-5.4-2.2-8-3.4c-2-0.9-3.7-2.2-5.4-3.6c-0.2-0.2-0.5-0.4-0.7-0.6c-0.2,0.1-0.3,0.2-0.4,0.3c-5.2,5.1-11.2,9.1-17.5,12.7
				c-8.3,4.8-17.1,8.4-26.1,11.5c-7.3,2.5-14.6,4.7-22.1,6.3c-5.4,1.1-10.9,1.9-16.4,2.4c-6.8,0.7-13.6,1-20.5,1.3
				c-7.1,0.3-14.1,0.3-21.2,0.1c-0.8,0-1.7-0.1-2.5-0.1c-2.3-0.2-4.2-1.1-5.5-3c-0.9-1.2-1.7-2.4-2.4-3.7c-2.1-4.2-3.5-8.6-4.1-13.3
				c-0.3-2.4-0.5-4.9-0.4-7.3c0.2-5.5,2.3-10,7.1-13.1c1.5-0.9,3-1.8,4.6-2.5c4-1.8,8.2-3.1,12.5-4.1c5.3-1.3,10.6-2.5,15.9-3.6
				c16.6-3.6,31.8-10.5,45.8-20.1c6.8-4.6,12.9-10,18.7-15.8c2.5-2.5,5.2-4.9,7.8-7.2c1.9-1.6,4-2.9,6.3-3.8c2.8-1.1,5.5-1,8.1,0.5
				c1.4,0.8,2.8,1.7,4,2.8c1.3,1.1,2.3,2.5,3.5,3.7c0.4,0.4,0.7,0.6,1.2,0.5c2.5-0.2,5-0.4,7.5-0.6c1.4-0.1,2.7-0.1,4.1-0.1
				c5-0.1,9.9-1.1,14.8-2.2c5.7-1.4,11.3-3.2,16.5-5.9c2.7-1.4,5.3-3.1,7.9-4.7c2.3-1.4,4.6-2.9,6.9-4.4c0.3-0.2,0.6-0.5,0.9-0.7
				c2-1.6,4-3.2,6-4.8c0.4-0.3,0.9-0.7,1.3-0.8c0.4-0.2,0.9-0.2,1.3-0.1c0.3,0,0.6,0.4,0.7,0.7c0.1,0.3-0.2,0.7-0.4,0.8
				c-0.5,0.4-1,0.7-1.5,1c-1.4,1.1-2.7,2.2-4,3.3C325,163.9,324.9,164,324.7,164.2z"/>
			<path class="st100" d="M299.5,367.2c-5.5,0-10.8-1.1-16.1-2.5c-2.7-0.7-5.4-1.6-8-2.4c-0.8-0.3-1.6-0.6-2.4-1
				c-1.6-0.8-2.6-2.1-2.5-3.8c0.1-1.8,0.3-3.6,0.7-5.3c2.3-10.4,5.6-20.5,10.4-30c1.5-3,3.2-5.9,5.3-8.4c0.5-0.6,1-1.2,1.6-1.8
				c2.3-2.4,5.1-3.7,8.5-3.6c2.5,0.1,5,0.4,7.5,0.9c1.1,0.2,2.3,0.4,3.4,0.7c1.2,0.3,2.3,0.2,3.3-0.5c1.1-0.7,2.3-1.5,3.3-2.4
				c1.2-1.2,2.3-2.5,3.4-3.8c1.4-1.4,2.8-2.9,4.3-4.2c1.7-1.5,3.8-2.4,6-3c4.6-1.2,8.9,0.9,10.8,5.2c0.9,2,1.2,4,1.3,6.2
				c0.2,4-0.6,8-1.7,11.9c-1.3,4.7-3.1,9.3-5.2,13.8c-2.3,5-4.6,10.1-7,15.1c-1.4,3-2.9,5.8-4.7,8.5c-0.1,0.2-0.2,0.3-0.3,0.5
				c-3.2,5.2-8,8.1-14,9.1c-1.1,0.2-2.2,0.4-3.4,0.5C302.6,367,301.1,367.1,299.5,367.2z"/>
			<path class="st100" d="M117.8,360.4c-3.6,0.1-6.7-1.1-9.6-2.6c-2.4-1.2-4.7-2.8-6.8-4.5c-3-2.4-5.9-4.8-8.9-7.3
				c-2.8-2.3-5.2-5-7-8.1c-1.4-2.5-2.5-5-2.3-7.9c0.1-3.1,1.6-5.4,4.5-6.7c2.1-1,4.4-1.3,6.8-1c1.9,0.2,3.8,0.6,5.7,0.9
				c1.3,0.2,2.4-0.1,3.2-1.2c0.4-0.6,0.9-1.1,1.3-1.7c2-3.1,3.9-6.2,5.4-9.6c0.5-1,1-2.1,1.6-3c1.4-2.1,3.5-2.8,5.8-1.9
				c1.1,0.4,2.2,1,3.1,1.7c2.1,1.7,4.2,3.4,6.2,5.4c6.1,6.1,12,12.5,17.5,19.2c1,1.2,1.8,2.4,2.7,3.7c0.5,0.8,1,1.8,1.4,2.7
				c0.8,1.8,0.5,3.6-0.5,5.3c-0.1,0.2-0.2,0.3-0.3,0.5c-1.2,2.9-3.4,4.8-5.9,6.4c-5.1,3.2-10.5,5.7-16,8c-0.9,0.4-1.8,0.7-2.8,1
				C121.1,360.1,119.4,360.4,117.8,360.4z"/>
		</g>
	</g>
	<g>
		<path class="st26" d="M76.3,240.7c0.1-1.9,0.2-3.8,0.4-5.7c0-0.5,0.1-1.1,0.3-1.6c0.2-0.6,0.8-1.1,1.4-1c0.5,0.1,1.2,0.4,1.5,0.9
			c0.3,0.6,0.5,1.4,0.5,2.1c0.1,1.3,0,2.6,0,4.2c0.5-0.3,0.9-0.5,1.1-0.7c0.9-0.8,1.7-1.6,2.6-2.3c0.4-0.3,0.8-0.6,1.3-0.7
			c0.7-0.2,1.3-0.1,1.8,0.5c0.5,0.6,0.4,1.3,0,1.8c-0.4,0.6-0.9,1.1-1.4,1.6c-1.3,1.4-2.6,2.8-4.1,4.4c0.7,0.1,1.2,0.2,1.6,0.3
			c2.1,0.3,4.3,0.6,6.4,0.9c0.4,0.1,0.9,0.2,1.3,0.4c0.7,0.4,1.1,1,1,1.8c-0.1,0.8-0.7,1.3-1.4,1.4c-0.7,0.1-1.4,0-2.1,0
			c-1.9-0.1-3.7-0.3-5.8-0.4c0.2,0.4,0.3,0.8,0.5,1c1,1.4,2.1,2.7,3.1,4.1c0.3,0.4,0.7,0.9,0.9,1.4c0.5,0.9,0.4,1.6-0.2,2.3
			c-0.6,0.6-1.6,0.8-2.4,0.3c-0.5-0.3-0.9-0.8-1.3-1.2c-1-1.2-2-2.4-3.2-3.8c-0.1,1.1-0.3,1.9-0.4,2.8c-0.1,1.3-0.2,2.5-0.4,3.8
			c-0.1,0.5-0.2,1.1-0.4,1.6c-0.3,0.6-0.8,0.9-1.5,0.8c-0.7,0-1.2-0.4-1.4-1c-0.2-0.7-0.3-1.4-0.3-2.1c0-2.7,0-5.5,0-8.4
			c-0.4,0.4-0.8,0.7-1.2,1c-1.7,1.4-3.3,2.7-5,4.1c-0.4,0.3-0.9,0.6-1.4,0.8c-0.6,0.3-1.2,0.2-1.6-0.3c-0.5-0.6-0.2-1.2,0.1-1.7
			c0.4-0.6,0.9-1.1,1.4-1.6c1.5-1.5,2.9-3,4.6-4.7c-1.1-0.1-2-0.3-2.9-0.4c-1.2-0.2-2.4-0.3-3.6-0.5c-0.5-0.1-1.1-0.1-1.4-0.4
			c-0.4-0.3-0.9-0.9-0.9-1.4c0-0.5,0.6-1.1,1-1.3c0.6-0.3,1.3-0.3,1.9-0.3c1.9,0,3.9,0,5.9,0c-0.1-0.2-0.3-0.5-0.4-0.8
			c-0.7-1.2-1.5-2.4-2.2-3.7c-0.5-1-0.3-1.7,0.3-2.2c0.6-0.5,1.7-0.5,2.4,0.1c0.5,0.4,0.9,0.9,1.3,1.5c0.7,0.9,1.4,1.8,2.1,2.8
			C76.1,240.8,76.2,240.8,76.3,240.7z"/>
		<path class="st26" d="M76.3,115.8c0.1-1.9,0.2-3.8,0.4-5.7c0-0.5,0.1-1.1,0.3-1.6c0.2-0.6,0.8-1.1,1.4-1c0.5,0.1,1.2,0.4,1.5,0.9
			c0.3,0.6,0.5,1.4,0.5,2.1c0.1,1.3,0,2.6,0,4.2c0.5-0.3,0.9-0.5,1.1-0.7c0.9-0.8,1.7-1.6,2.6-2.3c0.4-0.3,0.8-0.6,1.3-0.7
			c0.7-0.2,1.3-0.1,1.8,0.5c0.5,0.6,0.4,1.3,0,1.8c-0.4,0.6-0.9,1.1-1.4,1.6c-1.3,1.4-2.6,2.8-4.1,4.4c0.7,0.1,1.2,0.2,1.6,0.3
			c2.1,0.3,4.3,0.6,6.4,0.9c0.4,0.1,0.9,0.2,1.3,0.4c0.7,0.4,1.1,1,1,1.8c-0.1,0.8-0.7,1.3-1.4,1.4c-0.7,0.1-1.4,0-2.1,0
			c-1.9-0.1-3.7-0.3-5.8-0.4c0.2,0.4,0.3,0.8,0.5,1c1,1.4,2.1,2.7,3.1,4.1c0.3,0.4,0.7,0.9,0.9,1.4c0.5,0.9,0.4,1.6-0.2,2.3
			c-0.6,0.6-1.6,0.8-2.4,0.3c-0.5-0.3-0.9-0.8-1.3-1.2c-1-1.2-2-2.4-3.2-3.8c-0.1,1.1-0.3,1.9-0.4,2.8c-0.1,1.3-0.2,2.5-0.4,3.8
			c-0.1,0.5-0.2,1.1-0.4,1.6c-0.3,0.6-0.8,0.9-1.5,0.8c-0.7,0-1.2-0.4-1.4-1c-0.2-0.7-0.3-1.4-0.3-2.1c0-2.7,0-5.5,0-8.4
			c-0.4,0.4-0.8,0.7-1.2,1c-1.7,1.4-3.3,2.7-5,4.1c-0.4,0.3-0.9,0.6-1.4,0.8c-0.6,0.3-1.2,0.2-1.6-0.3c-0.5-0.6-0.2-1.2,0.1-1.7
			c0.4-0.6,0.9-1.1,1.4-1.6c1.5-1.5,2.9-3,4.6-4.7c-1.1-0.1-2-0.3-2.9-0.4c-1.2-0.2-2.4-0.3-3.6-0.5c-0.5-0.1-1.1-0.1-1.4-0.4
			c-0.4-0.3-0.9-0.9-0.9-1.4c0-0.5,0.6-1.1,1-1.3c0.6-0.3,1.3-0.3,1.9-0.3c1.9,0,3.9,0,5.9,0c-0.1-0.2-0.3-0.5-0.4-0.8
			c-0.7-1.2-1.5-2.4-2.2-3.7c-0.5-1-0.3-1.7,0.3-2.2c0.6-0.5,1.7-0.5,2.4,0.1c0.5,0.4,0.9,0.9,1.3,1.5c0.7,0.9,1.4,1.8,2.1,2.8
			C76.1,115.8,76.2,115.8,76.3,115.8z"/>
		<path class="st26" d="M285.9,126.3c0.1-1.9,0.2-3.8,0.4-5.7c0-0.5,0.1-1.1,0.3-1.6c0.2-0.6,0.8-1.1,1.4-1c0.5,0.1,1.2,0.4,1.5,0.9
			c0.3,0.6,0.5,1.4,0.5,2.1c0.1,1.3,0,2.6,0,4.2c0.5-0.3,0.9-0.5,1.1-0.7c0.9-0.8,1.7-1.6,2.6-2.3c0.4-0.3,0.8-0.6,1.3-0.7
			c0.7-0.2,1.3-0.1,1.8,0.5c0.5,0.6,0.4,1.3,0,1.8c-0.4,0.6-0.9,1.1-1.4,1.6c-1.3,1.4-2.6,2.8-4.1,4.4c0.7,0.1,1.2,0.2,1.6,0.3
			c2.1,0.3,4.3,0.6,6.4,0.9c0.4,0.1,0.9,0.2,1.3,0.4c0.7,0.4,1.1,1,1,1.8c-0.1,0.8-0.7,1.3-1.4,1.4c-0.7,0.1-1.4,0-2.1,0
			c-1.9-0.1-3.7-0.3-5.8-0.4c0.2,0.4,0.3,0.8,0.5,1c1,1.4,2.1,2.7,3.1,4.1c0.3,0.4,0.7,0.9,0.9,1.4c0.5,0.9,0.4,1.6-0.2,2.3
			c-0.6,0.6-1.6,0.8-2.4,0.3c-0.5-0.3-0.9-0.8-1.3-1.2c-1-1.2-2-2.4-3.2-3.8c-0.1,1.1-0.3,1.9-0.4,2.8c-0.1,1.3-0.2,2.5-0.4,3.8
			c-0.1,0.5-0.2,1.1-0.4,1.6c-0.3,0.6-0.8,0.9-1.5,0.8c-0.7,0-1.2-0.4-1.4-1c-0.2-0.7-0.3-1.4-0.3-2.1c0-2.7,0-5.5,0-8.4
			c-0.4,0.4-0.8,0.7-1.2,1c-1.7,1.4-3.3,2.7-5,4.1c-0.4,0.3-0.9,0.6-1.4,0.8c-0.6,0.3-1.2,0.2-1.6-0.3c-0.5-0.6-0.2-1.2,0.1-1.7
			c0.4-0.6,0.9-1.1,1.4-1.6c1.5-1.5,2.9-3,4.6-4.7c-1.1-0.1-2-0.3-2.9-0.4c-1.2-0.2-2.4-0.3-3.6-0.5c-0.5-0.1-1.1-0.1-1.4-0.4
			c-0.4-0.3-0.9-0.9-0.9-1.4c0-0.5,0.6-1.1,1-1.3c0.6-0.3,1.3-0.3,1.9-0.3c1.9,0,3.9,0,5.9,0c-0.1-0.2-0.3-0.5-0.4-0.8
			c-0.7-1.2-1.5-2.4-2.2-3.7c-0.5-1-0.3-1.7,0.3-2.2c0.6-0.5,1.7-0.5,2.4,0.1c0.5,0.4,0.9,0.9,1.3,1.5c0.7,0.9,1.4,1.8,2.1,2.8
			C285.7,126.4,285.8,126.4,285.9,126.3z"/>
		<path class="st26" d="M201.3,73.1c0.1-1.9,0.2-3.8,0.4-5.7c0-0.5,0.1-1.1,0.3-1.6c0.2-0.6,0.8-1.1,1.4-1c0.5,0.1,1.2,0.4,1.5,0.9
			c0.3,0.6,0.5,1.4,0.5,2.1c0.1,1.3,0,2.6,0,4.2c0.5-0.3,0.9-0.5,1.1-0.7c0.9-0.8,1.7-1.6,2.6-2.3c0.4-0.3,0.8-0.6,1.3-0.7
			c0.7-0.2,1.3-0.1,1.8,0.5c0.5,0.6,0.4,1.3,0,1.8c-0.4,0.6-0.9,1.1-1.4,1.6c-1.3,1.4-2.6,2.8-4.1,4.4c0.7,0.1,1.2,0.2,1.6,0.3
			c2.1,0.3,4.3,0.6,6.4,0.9c0.4,0.1,0.9,0.2,1.3,0.4c0.7,0.4,1.1,1,1,1.8c-0.1,0.8-0.7,1.3-1.4,1.4c-0.7,0.1-1.4,0-2.1,0
			c-1.9-0.1-3.7-0.3-5.8-0.4c0.2,0.4,0.3,0.8,0.5,1c1,1.4,2.1,2.7,3.1,4.1c0.3,0.4,0.7,0.9,0.9,1.4c0.5,0.9,0.4,1.6-0.2,2.3
			c-0.6,0.6-1.6,0.8-2.4,0.3c-0.5-0.3-0.9-0.8-1.3-1.2c-1-1.2-2-2.4-3.2-3.8c-0.1,1.1-0.3,1.9-0.4,2.8c-0.1,1.3-0.2,2.5-0.4,3.8
			c-0.1,0.5-0.2,1.1-0.4,1.6c-0.3,0.6-0.8,0.9-1.5,0.8c-0.7,0-1.2-0.4-1.4-1c-0.2-0.7-0.3-1.4-0.3-2.1c0-2.7,0-5.5,0-8.4
			c-0.4,0.4-0.8,0.7-1.2,1c-1.7,1.4-3.3,2.7-5,4.1c-0.4,0.3-0.9,0.6-1.4,0.8c-0.6,0.3-1.2,0.2-1.6-0.3c-0.5-0.6-0.2-1.2,0.1-1.7
			c0.4-0.6,0.9-1.1,1.4-1.6c1.5-1.5,2.9-3,4.6-4.7c-1.1-0.1-2-0.3-2.9-0.4c-1.2-0.2-2.4-0.3-3.6-0.5c-0.5-0.1-1.1-0.1-1.4-0.4
			c-0.4-0.3-0.9-0.9-0.9-1.4c0-0.5,0.6-1.1,1-1.3c0.6-0.3,1.3-0.3,1.9-0.3c1.9,0,3.9,0,5.9,0c-0.1-0.2-0.3-0.5-0.4-0.8
			c-0.7-1.2-1.5-2.4-2.2-3.7c-0.5-1-0.3-1.7,0.3-2.2c0.6-0.5,1.7-0.5,2.4,0.1c0.5,0.4,0.9,0.9,1.3,1.5c0.7,0.9,1.4,1.8,2.1,2.8
			C201,73.2,201.1,73.2,201.3,73.1z"/>
		<path class="st26" d="M353,270.7c0.1-1.9,0.2-3.8,0.4-5.7c0-0.5,0.1-1.1,0.3-1.6c0.2-0.6,0.8-1.1,1.4-1c0.5,0.1,1.2,0.4,1.5,0.9
			c0.3,0.6,0.5,1.4,0.5,2.1c0.1,1.3,0,2.6,0,4.2c0.5-0.3,0.9-0.5,1.1-0.7c0.9-0.8,1.7-1.6,2.6-2.3c0.4-0.3,0.8-0.6,1.3-0.7
			c0.7-0.2,1.3-0.1,1.8,0.5c0.5,0.6,0.4,1.3,0,1.8c-0.4,0.6-0.9,1.1-1.4,1.6c-1.3,1.4-2.6,2.8-4.1,4.4c0.7,0.1,1.2,0.2,1.6,0.3
			c2.1,0.3,4.3,0.6,6.4,0.9c0.4,0.1,0.9,0.2,1.3,0.4c0.7,0.4,1.1,1,1,1.8c-0.1,0.8-0.7,1.3-1.4,1.4c-0.7,0.1-1.4,0-2.1,0
			c-1.9-0.1-3.7-0.3-5.8-0.4c0.2,0.4,0.3,0.8,0.5,1c1,1.4,2.1,2.7,3.1,4.1c0.3,0.4,0.7,0.9,0.9,1.4c0.5,0.9,0.4,1.6-0.2,2.3
			c-0.6,0.6-1.6,0.8-2.4,0.3c-0.5-0.3-0.9-0.8-1.3-1.2c-1-1.2-2-2.4-3.2-3.8c-0.1,1.1-0.3,1.9-0.4,2.8c-0.1,1.3-0.2,2.5-0.4,3.8
			c-0.1,0.5-0.2,1.1-0.4,1.6c-0.3,0.6-0.8,0.9-1.5,0.8c-0.7,0-1.2-0.4-1.4-1c-0.2-0.7-0.3-1.4-0.3-2.1c0-2.7,0-5.5,0-8.4
			c-0.4,0.4-0.8,0.7-1.2,1c-1.7,1.4-3.3,2.7-5,4.1c-0.4,0.3-0.9,0.6-1.4,0.8c-0.6,0.3-1.2,0.2-1.6-0.3c-0.5-0.6-0.2-1.2,0.1-1.7
			c0.4-0.6,0.9-1.1,1.4-1.6c1.5-1.5,2.9-3,4.6-4.7c-1.1-0.1-2-0.3-2.9-0.4c-1.2-0.2-2.4-0.3-3.6-0.5c-0.5-0.1-1.1-0.1-1.4-0.4
			c-0.4-0.3-0.9-0.9-0.9-1.4c0-0.5,0.6-1.1,1-1.3c0.6-0.3,1.3-0.3,1.9-0.3c1.9,0,3.9,0,5.9,0c-0.1-0.2-0.3-0.5-0.4-0.8
			c-0.7-1.2-1.5-2.4-2.2-3.7c-0.5-1-0.3-1.7,0.3-2.2c0.6-0.5,1.7-0.5,2.4,0.1c0.5,0.4,0.9,0.9,1.3,1.5c0.7,0.9,1.4,1.8,2.1,2.8
			C352.7,270.8,352.8,270.8,353,270.7z"/>
	</g>
</g>
</svg>
